<svg width="67" height="69" viewBox="0 0 67 69" fill="none" xmlns="http://www.w3.org/2000/svg">
<rect y="4.53247" width="67" height="64.4675" rx="8" fill="#0818A6"/>
<path d="M21 25.1875V59H11.9688V25.1875H21ZM11.4062 16.375C11.4062 15.0625 11.8646 13.9792 12.7812 13.125C13.6979 12.2708 14.9271 11.8438 16.4688 11.8438C17.9896 11.8438 19.2083 12.2708 20.125 13.125C21.0625 13.9792 21.5312 15.0625 21.5312 16.375C21.5312 17.6875 21.0625 18.7708 20.125 19.625C19.2083 20.4792 17.9896 20.9062 16.4688 20.9062C14.9271 20.9062 13.6979 20.4792 12.7812 19.625C11.8646 18.7708 11.4062 17.6875 11.4062 16.375ZM37.25 32.4062V59H28.25V25.1875H36.6875L37.25 32.4062ZM35.9375 40.9062H33.5C33.5 38.4062 33.8229 36.1562 34.4688 34.1562C35.1146 32.1354 36.0208 30.4167 37.1875 29C38.3542 27.5625 39.7396 26.4688 41.3438 25.7188C42.9688 24.9479 44.7812 24.5625 46.7812 24.5625C48.3646 24.5625 49.8125 24.7917 51.125 25.25C52.4375 25.7083 53.5625 26.4375 54.5 27.4375C55.4583 28.4375 56.1875 29.7604 56.6875 31.4062C57.2083 33.0521 57.4688 35.0625 57.4688 37.4375V59H48.4062V37.4062C48.4062 35.9062 48.1979 34.7396 47.7812 33.9062C47.3646 33.0729 46.75 32.4896 45.9375 32.1562C45.1458 31.8021 44.1667 31.625 43 31.625C41.7917 31.625 40.7396 31.8646 39.8438 32.3438C38.9688 32.8229 38.2396 33.4896 37.6562 34.3438C37.0938 35.1771 36.6667 36.1562 36.375 37.2812C36.0833 38.4062 35.9375 39.6146 35.9375 40.9062Z" fill="white"/>
</svg>
